<?xml version="1.0" encoding="UTF-8"?>
<!DOCTYPE svg PUBLIC "-//W3C//DTD SVG 1.1//EN" "http://www.w3.org/Graphics/SVG/1.1/DTD/svg11.dtd">
<!-- Creator: CorelDRAW 2017 -->
<svg xmlns="http://www.w3.org/2000/svg" xml:space="preserve" width="19.8118mm" height="16.8486mm" version="1.1" style="shape-rendering:geometricPrecision; text-rendering:geometricPrecision; image-rendering:optimizeQuality; fill-rule:evenodd; clip-rule:evenodd"
viewBox="0 0 1981.18 1684.86"
 xmlns:xlink="http://www.w3.org/1999/xlink">
 <defs>
  <style type="text/css">
   <![CDATA[
    .fil120 {fill:#000066}
    .fil122 {fill:#000099}
    .fil119 {fill:#0000CC}
    .fil64 {fill:blue}
    .fil121 {fill:#003299}
    .fil36 {fill:#003300}
    .fil117 {fill:#003366}
    .fil87 {fill:#0033CC}
    .fil75 {fill:#006600}
    .fil62 {fill:#006666}
    .fil97 {fill:#006699}
    .fil20 {fill:#0066CC}
    .fil40 {fill:#0066FF}
    .fil25 {fill:#009800}
    .fil28 {fill:#009933}
    .fil102 {fill:#009999}
    .fil99 {fill:#0099CC}
    .fil48 {fill:#0099FF}
    .fil103 {fill:#00CC00}
    .fil85 {fill:#00CC66}
    .fil70 {fill:#00CC99}
    .fil86 {fill:#00CCFF}
    .fil10 {fill:#00FE00}
    .fil54 {fill:#00FF99}
    .fil27 {fill:#00FFCC}
    .fil21 {fill:aqua}
    .fil6 {fill:#32CBCB}
    .fil88 {fill:#333300}
    .fil63 {fill:#333399}
    .fil41 {fill:#3333CC}
    .fil65 {fill:#3333FF}
    .fil92 {fill:#336600}
    .fil118 {fill:#336699}
    .fil112 {fill:#3366CC}
    .fil46 {fill:#3366FF}
    .fil50 {fill:#339933}
    .fil68 {fill:#339966}
    .fil72 {fill:#3399FF}
    .fil31 {fill:#33CC33}
    .fil82 {fill:#33CCFF}
    .fil98 {fill:#660033}
    .fil33 {fill:#660066}
    .fil90 {fill:#6600CC}
    .fil95 {fill:#6600FF}
    .fil116 {fill:#663300}
    .fil71 {fill:#666633}
    .fil42 {fill:#666699}
    .fil105 {fill:#6666FF}
    .fil66 {fill:#669900}
    .fil39 {fill:#669999}
    .fil106 {fill:#6699FF}
    .fil52 {fill:#66CCFF}
    .fil23 {fill:#66FF33}
    .fil67 {fill:#66FF66}
    .fil55 {fill:#66FF99}
    .fil53 {fill:#66FFCC}
    .fil51 {fill:#66FFFF}
    .fil13 {fill:#9898FF}
    .fil0 {fill:#990000}
    .fil61 {fill:#990033}
    .fil30 {fill:#990099}
    .fil76 {fill:#9900CC}
    .fil101 {fill:#9900FF}
    .fil93 {fill:#993265}
    .fil9 {fill:#9932FF}
    .fil115 {fill:#993300}
    .fil111 {fill:#993333}
    .fil79 {fill:#993399}
    .fil113 {fill:#996600}
    .fil56 {fill:#996633}
    .fil24 {fill:#9966FF}
    .fil49 {fill:#999966}
    .fil69 {fill:#99CC00}
    .fil8 {fill:#99CCFF}
    .fil45 {fill:#99FF33}
    .fil80 {fill:#99FF66}
    .fil38 {fill:#99FF99}
    .fil73 {fill:#99FFCC}
    .fil124 {fill:#CC0000}
    .fil4 {fill:#CC0066}
    .fil78 {fill:#CC0099}
    .fil32 {fill:#CC00CC}
    .fil96 {fill:#CC00FF}
    .fil114 {fill:#CC3300}
    .fil19 {fill:#CC3399}
    .fil84 {fill:#CC33FF}
    .fil59 {fill:#CC6600}
    .fil17 {fill:#CC6699}
    .fil108 {fill:#CC66FF}
    .fil83 {fill:#CC98FF}
    .fil57 {fill:#CC9900}
    .fil47 {fill:#CCCC00}
    .fil15 {fill:#CCCCFF}
    .fil91 {fill:#CCFF33}
    .fil26 {fill:#CCFF66}
    .fil81 {fill:#CCFF99}
    .fil37 {fill:#CCFFCC}
    .fil74 {fill:#CCFFFF}
    .fil123 {fill:red}
    .fil2 {fill:#FF0066}
    .fil34 {fill:fuchsia}
    .fil60 {fill:#FF3300}
    .fil43 {fill:#FF3399}
    .fil77 {fill:#FF33CC}
    .fil3 {fill:#FF6600}
    .fil1 {fill:#FF6666}
    .fil107 {fill:#FF6699}
    .fil109 {fill:#FF66CC}
    .fil100 {fill:#FF66FF}
    .fil29 {fill:#FF9898}
    .fil16 {fill:#FF98CC}
    .fil11 {fill:#FF98FF}
    .fil58 {fill:#FF9900}
    .fil44 {fill:#FF9933}
    .fil110 {fill:#FF9966}
    .fil94 {fill:#FFCC00}
    .fil104 {fill:#FFCC66}
    .fil12 {fill:#FFCC98}
    .fil5 {fill:#FFCCCC}
    .fil7 {fill:#FFCCFF}
    .fil89 {fill:yellow}
    .fil22 {fill:#FFFF65}
    .fil14 {fill:#FFFF99}
    .fil18 {fill:#FFFFCC}
    .fil35 {fill:white}
   ]]>
  </style>
 </defs>
 <g id="Capa_x0020_1">
  <metadata id="CorelCorpID_0Corel-Layer"/>
  <g id="_2695584829152">
   <path class="fil0" d="M1066.79 1557.86l0 93.14c30.06,7 58.5,30 77.38,31.2 28.57,1.83 49.55,-26.72 77.52,-28.54 63.57,-4.13 21.21,65.43 149.9,-2.66l0 -95.2c-21.47,-18.22 -45.84,-30.34 -76.2,-34.9 -113.28,61.78 -54.33,25.95 -152.4,3.1 -24.03,12.71 -47.14,27.09 -76.2,33.86z"/>
   <path class="fil1" d="M1142.99 1177.03l0 92.97c28.07,6.54 54.63,20.97 78.02,38.08l0 88.01c28.61,5.36 51.47,19.55 74.38,33.06l74.75 -32.96 0 -91.42c-23.48,-11.05 -47.1,-28.28 -74.75,-29.65l0 -98.26c-23.93,-12.66 -47.16,-27.13 -76.03,-33.78 -24.44,13.04 -46.7,27.09 -76.37,33.95z"/>
   <path class="fil2" d="M1295.39 1176.86l0 98.26c27.65,1.37 51.27,18.6 74.75,29.65 30.68,-8.06 52.76,-21.6 77.65,-34.77l0 -93.14c-24.03,-12.71 -47.14,-27.09 -76.2,-33.86 -24.03,12.71 -47.14,27.09 -76.2,33.86z"/>
   <path class="fil3" d="M1066.79 1303.86l0 93.14c29.06,6.77 52.17,21.15 76.2,33.86 29.74,-6.92 52.35,-21.27 78.02,-34.77l0 -88.01c-23.39,-17.11 -49.95,-31.54 -78.02,-38.08 -24.03,12.71 -47.14,27.09 -76.2,33.86z"/>
   <path class="fil4" d="M1370.14 1304.77l0 91.42c30.66,7.9 52.78,21.52 77.65,34.67 29.06,-6.77 52.17,-21.15 76.2,-33.86l0 -93.14c-24.03,-12.71 -47.14,-27.09 -76.2,-33.86 -24.89,13.17 -46.97,26.71 -77.65,34.77z"/>
   <path class="fil5" d="M990.59 922.86l0 93.26c29.14,6.9 52.04,21.28 76.36,33.91 29.54,-6.9 51.81,-21 76.2,-33.87l0 -93.26c-24.2,-12.72 -47.22,-27.12 -76.36,-33.9 -24.03,12.71 -47.14,27.09 -76.2,33.86z"/>
   <path class="fil6" d="M609.42 287.81l0 93.18c29.73,6.86 51.93,20.95 76.37,33.84 29.07,-6.83 52.12,-21.2 76.2,-33.86l0 -93.19c-24.25,-13.08 -46.63,-27.12 -76.2,-33.92 -24.17,12.76 -47.15,27.08 -76.37,33.95z"/>
   <path class="fil7" d="M1066.79 795.86l0 93.14c29.14,6.78 52.16,21.18 76.36,33.9 29.5,-6.84 51.79,-20.97 76.2,-33.86l0 -93.22c-24.41,-12.89 -46.7,-27.02 -76.2,-33.86 -24.2,12.72 -47.22,27.12 -76.36,33.9z"/>
   <path class="fil8" d="M1066.79 541.86l0 93.14c29.14,6.78 52.16,21.17 76.36,33.9 28.96,-6.71 52.17,-21.11 76.21,-33.94l0 -93.18c-24.58,-12.71 -46.7,-26.87 -76.37,-33.78 -24.03,12.71 -47.14,27.09 -76.2,33.86z"/>
   <path class="fil9" d="M1524.15 541.82l0 93.17c28.9,6.79 52.1,21.17 76.04,33.91 29.65,-6.81 51.88,-20.93 76.37,-33.86l0 -93.2c-24.52,-12.91 -46.71,-26.99 -76.37,-33.91 -24.03,12.63 -47.12,27 -76.04,33.89z"/>
   <path class="fil10" d="M380.82 668.85l0 93.17c29.24,6.81 52.21,21.17 76.37,33.87 29.07,-6.82 52.16,-21.17 76.2,-33.89l0 -93.14c-24.04,-12.71 -47.13,-27.08 -76.2,-33.88 -24.47,12.9 -46.65,26.97 -76.37,33.87z"/>
   <path class="fil11" d="M1219.35 795.82l0 93.22c28.98,6.74 52.09,21.18 76.21,33.86 29.49,-6.84 51.78,-20.97 76.2,-33.86l0 -93.22c-24.42,-12.89 -46.71,-27.02 -76.2,-33.86 -24.12,12.68 -47.23,27.12 -76.21,33.86z"/>
   <path class="fil12" d="M914.39 1049.91l0 93.17c28.64,6.86 52.33,21.45 76.2,33.91 29.69,-6.97 51.84,-21.06 76.36,-33.87l0 -93.09c-24.32,-12.63 -47.22,-27.01 -76.36,-33.91 -24.32,12.86 -46.62,26.98 -76.2,33.79z"/>
   <path class="fil13" d="M1219.36 541.78l0 93.18c29.47,6.68 51.85,20.85 76.2,33.82 28.96,-6.68 52.07,-21.17 76.2,-33.79l0 -93.21c-24.44,-13.04 -46.7,-27.09 -76.37,-33.95 -23.77,12.48 -47.58,27.08 -76.03,33.95z"/>
   <path class="fil14" d="M761.99 1049.86l0 93.22c28.66,6.85 52.31,21.46 76.2,33.87 29.13,-6.92 52.11,-21.26 76.2,-33.87l0 -93.17c-24.01,-12.78 -47.15,-27.15 -76.2,-33.91 -24.03,12.71 -47.14,27.09 -76.2,33.86z"/>
   <path class="fil15" d="M990.59 668.86l0 93.14c29.06,6.77 52.17,21.15 76.2,33.86 29.14,-6.78 52.16,-21.18 76.36,-33.9l0 -93.06c-24.2,-12.73 -47.22,-27.12 -76.36,-33.9 -24.03,12.71 -47.14,27.09 -76.2,33.86z"/>
   <path class="fil16" d="M1143.15 922.9l0 93.26c28.54,6.75 52.24,21.46 76.21,33.83 29.01,-6.87 52.1,-21.23 76.2,-33.95l0 -93.14c-24.12,-12.68 -47.23,-27.12 -76.21,-33.86 -24.41,12.89 -46.7,27.02 -76.2,33.86z"/>
   <path class="fil17" d="M1447.79 1176.86l0 93.14c29.06,6.77 52.17,21.15 76.2,33.86 29.63,-6.9 51.81,-21.04 76.31,-33.81l0 -93.14c-24.14,-12.75 -47.2,-27.13 -76.31,-33.91 -24.03,12.71 -47.14,27.09 -76.2,33.86z"/>
   <path class="fil18" d="M838.19 922.86l0 93.14c29.05,6.76 52.19,21.13 76.2,33.91 29.58,-6.81 51.88,-20.93 76.2,-33.79l0 -93.26c-24.03,-12.71 -47.14,-27.09 -76.2,-33.86 -24.03,12.71 -47.14,27.09 -76.2,33.86z"/>
   <path class="fil19" d="M1523.99 1049.86l0 93.14c29.11,6.78 52.17,21.16 76.31,33.91 29.46,-6.82 51.83,-20.91 76.09,-33.87l0 -93.18c-24.03,-12.71 -47.14,-27.09 -76.2,-33.86 -24.03,12.71 -47.14,27.09 -76.2,33.86z"/>
   <path class="fil20" d="M838.19 160.86l0 93.14c29.06,6.77 52.17,21.15 76.2,33.86 29.06,-6.77 52.17,-21.15 76.2,-33.86l0 -93.18c-24.28,-12.97 -46.63,-27.06 -76.14,-33.87 -24.08,12.76 -47.18,27.14 -76.26,33.91z"/>
   <path class="fil21" d="M685.79 414.83l0 93.17c29.06,6.77 52.17,21.15 76.2,33.86 29.06,-6.77 52.17,-21.15 76.2,-33.86l0 -93.14c-24.04,-12.72 -47.12,-27.07 -76.2,-33.89 -24.08,12.66 -47.13,27.03 -76.2,33.86z"/>
   <path class="fil22" d="M685.71 1176.87l0 93.17c29.15,6.85 52.15,21.2 76.28,33.9 29.57,-6.89 51.87,-20.94 76.2,-33.91l0 -93.08c-23.89,-12.41 -47.54,-27.02 -76.2,-33.87 -24.42,12.79 -46.62,26.91 -76.28,33.79z"/>
   <path class="fil23" d="M380.95 922.89l0 93.11c29.1,6.76 52.19,21.14 76.24,33.86 29.06,-6.77 52.17,-21.15 76.2,-33.86l0 -93.14c-24.03,-12.71 -47.14,-27.09 -76.2,-33.86 -24.06,12.72 -47.13,27.08 -76.24,33.89z"/>
   <path class="fil24" d="M1371.76 541.78l0 93.21c28.9,6.81 52.07,21.19 76.03,33.87 29.16,-6.79 52.14,-21.19 76.36,-33.87l0 -93.17c-24.56,-12.78 -46.7,-26.91 -76.36,-33.82 -23.93,12.66 -47.16,27.13 -76.03,33.78z"/>
   <path class="fil25" d="M228.51 922.86l0 93.17c29.15,6.83 52.15,21.2 76.28,33.87 29.06,-6.83 52.16,-21.17 76.16,-33.9l0 -93.11c-24.04,-12.67 -47.11,-27.04 -76.16,-33.86 -24.41,12.87 -46.64,26.96 -76.28,33.83z"/>
   <path class="fil26" d="M609.59 1049.86l0 93.14c29.02,6.76 52.18,21.13 76.12,33.87 29.66,-6.88 51.86,-21 76.28,-33.79l0 -93.22c-24.03,-12.71 -47.14,-27.09 -76.2,-33.86 -24.03,12.71 -47.14,27.09 -76.2,33.86z"/>
   <path class="fil27" d="M533.39 414.86l0 93.14c29.06,6.77 52.17,21.15 76.2,33.86 29.06,-6.77 52.17,-21.15 76.2,-33.86l0 -93.17c-24.44,-12.89 -46.64,-26.98 -76.37,-33.84 -23.83,12.77 -47.06,27.12 -76.03,33.87z"/>
   <path class="fil28" d="M152.39 795.86l0 93.14c29.02,6.76 52.18,21.12 76.12,33.86 29.64,-6.87 51.87,-20.96 76.28,-33.83l0 -93.17c-24.03,-12.71 -47.14,-27.09 -76.2,-33.86 -24.03,12.71 -47.14,27.09 -76.2,33.86z"/>
   <path class="fil29" d="M1066.95 1050.03l0 93.09c28.44,6.8 52.28,21.44 76.04,33.91 29.67,-6.86 51.93,-20.91 76.37,-33.95l0 -93.09c-23.97,-12.37 -47.67,-27.08 -76.21,-33.83 -24.39,12.87 -46.66,26.97 -76.2,33.87z"/>
   <path class="fil30" d="M1676.39 1049.86l0 93.18c29.05,6.7 52.18,21.12 76.2,33.83 29.06,-6.78 52.17,-21.16 76.2,-33.87l0 -93.14c-24.03,-12.71 -47.14,-27.09 -76.2,-33.86 -24.03,12.71 -47.14,27.09 -76.2,33.86z"/>
   <path class="fil31" d="M304.79 795.86l0 93.17c29.05,6.82 52.12,21.19 76.16,33.86 29.11,-6.81 52.18,-21.17 76.24,-33.89l0 -93.11c-24.16,-12.7 -47.13,-27.06 -76.37,-33.87 -23.85,12.73 -47.05,27.09 -76.03,33.84z"/>
   <path class="fil32" d="M1676.39 795.86l0 93.14c29.06,6.77 52.17,21.15 76.2,33.86 29.06,-6.77 52.17,-21.15 76.2,-33.86l0 -93.14c-24.03,-12.71 -47.14,-27.09 -76.2,-33.86 -24.03,12.71 -47.14,27.09 -76.2,33.86z"/>
   <path class="fil33" d="M1828.79 795.86l0 93.14c29.06,6.77 52.17,21.15 76.2,33.86 29.06,-6.77 52.17,-21.15 76.2,-33.86l0 -93.14c-24.03,-12.71 -47.14,-27.09 -76.2,-33.86 -24.03,12.71 -47.14,27.09 -76.2,33.86z"/>
   <path class="fil34" d="M1523.99 795.86l0 93.14c29.06,6.77 52.17,21.15 76.2,33.86 29.06,-6.77 52.17,-21.15 76.2,-33.86l0 -93.14c-24.03,-12.71 -47.14,-27.09 -76.2,-33.86 -24.03,12.71 -47.14,27.09 -76.2,33.86z"/>
   <path class="fil35" d="M914.39 795.86l0 93.14c29.06,6.77 52.17,21.15 76.2,33.86 29.06,-6.77 52.17,-21.15 76.2,-33.86l0 -93.14c-24.03,-12.71 -47.14,-27.09 -76.2,-33.86 -24.03,12.71 -47.14,27.09 -76.2,33.86z"/>
   <path class="fil36" d="M76.19 922.86c29.06,-6.77 52.17,-21.15 76.2,-33.86l0 -93.14c-24.03,-12.71 -47.14,-27.09 -76.2,-33.86 -24.03,12.71 -47.14,27.09 -76.2,33.86l0 93.14c29.06,6.77 52.17,21.15 76.2,33.86z"/>
   <path class="fil37" d="M761.99 795.86l0 93.14c29.06,6.77 52.17,21.15 76.2,33.86 29.06,-6.77 52.17,-21.15 76.2,-33.86l0 -93.14c-24.03,-12.71 -47.14,-27.09 -76.2,-33.86 -24.03,12.71 -47.14,27.09 -76.2,33.86z"/>
   <path class="fil38" d="M609.59 795.86l0 93.14c29.06,6.77 52.17,21.15 76.2,33.86 29.06,-6.77 52.17,-21.15 76.2,-33.86l0 -93.14c-24.03,-12.71 -47.14,-27.09 -76.2,-33.86 -24.03,12.71 -47.14,27.09 -76.2,33.86z"/>
   <path class="fil39" d="M304.79 381c29.06,6.77 52.17,21.15 76.2,33.86 29.06,-6.77 52.17,-21.15 76.2,-33.86l0 -93.14c-24.03,-12.71 -47.14,-27.09 -76.2,-33.86 -24.03,12.71 -47.14,27.09 -76.2,33.86l0 93.14z"/>
   <path class="fil40" d="M1066.79 287.86l0 93.14c29.06,6.77 52.17,21.15 76.2,33.86 29.06,-6.77 52.17,-21.15 76.2,-33.86l0 -93.14c-24.03,-12.71 -47.14,-27.09 -76.2,-33.86 -24.03,12.71 -47.14,27.09 -76.2,33.86z"/>
   <path class="fil41" d="M1371.59 287.86l0 93.14c29.06,6.77 52.17,21.15 76.2,33.86 29.06,-6.77 52.17,-21.15 76.2,-33.86l0 -93.14c-24.03,-12.71 -47.14,-27.09 -76.2,-33.86 -24.03,12.71 -47.14,27.09 -76.2,33.86z"/>
   <path class="fil42" d="M1523.99 287.86l0 93.14c29.06,6.77 52.17,21.15 76.2,33.86 29.06,-6.77 52.17,-21.15 76.2,-33.86l0 -93.14c-24.03,-12.71 -47.14,-27.09 -76.2,-33.86 -24.03,12.71 -47.14,27.09 -76.2,33.86z"/>
   <path class="fil43" d="M1371.59 1049.86l0 93.14c29.06,6.77 52.17,21.15 76.2,33.86 29.06,-6.77 52.17,-21.15 76.2,-33.86l0 -93.14c-24.03,-12.71 -47.14,-27.09 -76.2,-33.86 -24.03,12.71 -47.14,27.09 -76.2,33.86z"/>
   <path class="fil44" d="M914.39 1303.86l0 93.14c29.06,6.77 52.17,21.15 76.2,33.86 29.06,-6.77 52.17,-21.15 76.2,-33.86l0 -93.14c-24.03,-12.71 -47.14,-27.09 -76.2,-33.86 -24.03,12.71 -47.14,27.09 -76.2,33.86z"/>
   <path class="fil45" d="M457.19 1049.86l0 93.14c29.06,6.77 52.17,21.15 76.2,33.86 29.06,-6.77 52.17,-21.15 76.2,-33.86l0 -93.14c-24.03,-12.71 -47.14,-27.09 -76.2,-33.86 -24.03,12.71 -47.14,27.09 -76.2,33.86z"/>
   <path class="fil46" d="M1219.19 287.86l0 93.14c29.06,6.77 52.17,21.15 76.2,33.86 29.06,-6.77 52.17,-21.15 76.2,-33.86l0 -93.14c-24.03,-12.71 -47.14,-27.09 -76.2,-33.86 -24.03,12.71 -47.14,27.09 -76.2,33.86z"/>
   <path class="fil47" d="M457.19 1303.86l0 93.14c29.06,6.77 52.17,21.15 76.2,33.86 29.06,-6.77 52.17,-21.15 76.2,-33.86l0 -93.14c-24.03,-12.71 -47.14,-27.09 -76.2,-33.86 -24.03,12.71 -47.14,27.09 -76.2,33.86z"/>
   <path class="fil48" d="M914.39 287.86l0 93.14c29.06,6.77 52.17,21.15 76.2,33.86 29.06,-6.77 52.17,-21.15 76.2,-33.86l0 -93.14c-24.03,-12.71 -47.14,-27.09 -76.2,-33.86 -24.03,12.71 -47.14,27.09 -76.2,33.86z"/>
   <path class="fil49" d="M304.79 1303.86l0 93.14c29.06,6.77 52.17,21.15 76.2,33.86 29.06,-6.77 52.17,-21.15 76.2,-33.86l0 -93.14c-24.03,-12.71 -47.14,-27.09 -76.2,-33.86 -24.03,12.71 -47.14,27.09 -76.2,33.86z"/>
   <path class="fil50" d="M152.39 635c29.06,6.77 52.17,21.15 76.2,33.86 29.06,-6.77 52.17,-21.15 76.2,-33.86l0 -93.14c-24.03,-12.71 -47.14,-27.09 -76.2,-33.86 -24.03,12.71 -47.14,27.09 -76.2,33.86l0 93.14z"/>
   <path class="fil51" d="M761.99 541.86l0 93.14c29.06,6.77 52.17,21.15 76.2,33.86 29.06,-6.77 52.17,-21.15 76.2,-33.86l0 -93.14c-24.03,-12.71 -47.14,-27.09 -76.2,-33.86 -24.03,12.71 -47.14,27.09 -76.2,33.86z"/>
   <path class="fil52" d="M914.39 541.86l0 93.14c29.06,6.77 52.17,21.15 76.2,33.86 29.06,-6.77 52.17,-21.15 76.2,-33.86l0 -93.14c-24.03,-12.71 -47.14,-27.09 -76.2,-33.86 -24.03,12.71 -47.14,27.09 -76.2,33.86z"/>
   <path class="fil53" d="M609.59 541.86l0 93.14c29.06,6.77 52.17,21.15 76.2,33.86 29.06,-6.77 52.17,-21.15 76.2,-33.86l0 -93.14c-24.03,-12.71 -47.14,-27.09 -76.2,-33.86 -24.03,12.71 -47.14,27.09 -76.2,33.86z"/>
   <path class="fil54" d="M457.19 541.86l0 93.12c29.07,6.8 52.16,21.17 76.2,33.88 29.06,-6.77 52.17,-21.15 76.2,-33.86l0 -93.14c-24.03,-12.71 -47.14,-27.09 -76.2,-33.86 -24.03,12.71 -47.14,27.09 -76.2,33.86z"/>
   <path class="fil55" d="M533.39 668.86l0 93.14c29.06,6.77 52.17,21.15 76.2,33.86 29.06,-6.77 52.17,-21.15 76.2,-33.86l0 -93.14c-24.03,-12.71 -47.14,-27.09 -76.2,-33.86 -24.03,12.71 -47.14,27.09 -76.2,33.86z"/>
   <path class="fil56" d="M380.99 1430.86l0 93.14c29.06,6.77 52.17,21.15 76.2,33.86 29.06,-6.77 52.17,-21.15 76.2,-33.86l0 -93.14c-24.03,-12.71 -47.14,-27.09 -76.2,-33.86 -24.03,12.71 -47.14,27.09 -76.2,33.86z"/>
   <path class="fil57" d="M533.39 1430.86l0 93.14c29.06,6.77 52.17,21.15 76.2,33.86 29.06,-6.77 52.17,-21.15 76.2,-33.86l0 -93.14c-24.03,-12.71 -47.14,-27.09 -76.2,-33.86 -24.03,12.71 -47.14,27.09 -76.2,33.86z"/>
   <path class="fil58" d="M685.79 1430.86l0 93.14c29.06,6.77 52.17,21.15 76.2,33.86 29.06,-6.77 52.17,-21.15 76.2,-33.86l0 -93.14c-24.03,-12.71 -47.14,-27.09 -76.2,-33.86 -24.03,12.71 -47.14,27.09 -76.2,33.86z"/>
   <path class="fil59" d="M838.19 1430.86l0 93.14c29.06,6.77 52.17,21.15 76.2,33.86 29.06,-6.77 52.17,-21.15 76.2,-33.86l0 -93.14c-24.03,-12.71 -47.14,-27.09 -76.2,-33.86 -24.03,12.71 -47.14,27.09 -76.2,33.86z"/>
   <path class="fil60" d="M990.59 1430.86l0 93.14c29.06,6.77 52.17,21.15 76.2,33.86 29.06,-6.77 52.17,-21.15 76.2,-33.86l0 -93.14c-24.03,-12.71 -47.14,-27.09 -76.2,-33.86 -24.03,12.71 -47.14,27.09 -76.2,33.86z"/>
   <path class="fil61" d="M1447.79 1430.86l0 93.14c29.06,6.77 52.17,21.15 76.2,33.86 29.06,-6.77 52.17,-21.15 76.2,-33.86l0 -93.14c-24.03,-12.71 -47.14,-27.09 -76.2,-33.86 -24.03,12.71 -47.14,27.09 -76.2,33.86z"/>
   <path class="fil62" d="M380.99 254c29.06,6.77 52.17,21.15 76.2,33.86 29.06,-6.77 52.17,-21.15 76.2,-33.86l0 -93.14c-24.03,-12.71 -47.14,-27.09 -76.2,-33.86 -24.03,12.71 -47.14,27.09 -76.2,33.86l0 93.14z"/>
   <path class="fil63" d="M1447.79 160.86l0 93.14c29.06,6.77 52.17,21.15 76.2,33.86 29.06,-6.77 52.17,-21.15 76.2,-33.86l0 -93.14c-24.03,-12.71 -47.14,-27.09 -76.2,-33.86 -24.03,12.71 -47.14,27.09 -76.2,33.86z"/>
   <path class="fil64" d="M1142.99 160.86l0 93.14c29.06,6.77 52.17,21.15 76.2,33.86 29.06,-6.77 52.17,-21.15 76.2,-33.86l0 -93.14c-24.03,-12.71 -47.14,-27.09 -76.2,-33.86 -24.03,12.71 -47.14,27.09 -76.2,33.86z"/>
   <path class="fil65" d="M1295.39 160.86l0 93.14c29.06,6.77 52.17,21.15 76.2,33.86 29.06,-6.77 52.17,-21.15 76.2,-33.86l0 -93.14c-24.03,-12.71 -47.14,-27.09 -76.2,-33.86 -24.03,12.71 -47.14,27.09 -76.2,33.86z"/>
   <path class="fil66" d="M304.79 1049.9l0 93.1c29.06,6.77 52.17,21.15 76.2,33.86 29.06,-6.77 52.17,-21.15 76.2,-33.86l0 -93.14c-24.05,-12.72 -47.14,-27.1 -76.24,-33.86 -24,12.73 -47.1,27.07 -76.16,33.9z"/>
   <path class="fil67" d="M457.19 795.89l0 93.11c29.06,6.77 52.17,21.15 76.2,33.86 29.06,-6.77 52.17,-21.15 76.2,-33.86l0 -93.14c-24.03,-12.71 -47.14,-27.09 -76.2,-33.86 -24.04,12.72 -47.13,27.07 -76.2,33.89z"/>
   <path class="fil68" d="M228.59 508c29.06,6.77 52.17,21.15 76.2,33.86 29.06,-6.77 52.17,-21.15 76.2,-33.86l0 -93.14c-24.03,-12.71 -47.14,-27.09 -76.2,-33.86 -24.03,12.71 -47.14,27.09 -76.2,33.86l0 93.14z"/>
   <path class="fil69" d="M380.99 1176.86l0 93.14c29.06,6.77 52.17,21.15 76.2,33.86 29.06,-6.77 52.17,-21.15 76.2,-33.86l0 -93.14c-24.03,-12.71 -47.14,-27.09 -76.2,-33.86 -24.03,12.71 -47.14,27.09 -76.2,33.86z"/>
   <path class="fil70" d="M380.99 414.86l0 93.14c29.06,6.77 52.17,21.15 76.2,33.86 29.06,-6.77 52.17,-21.15 76.2,-33.86l0 -93.14c-24.03,-12.71 -47.14,-27.09 -76.2,-33.86 -24.03,12.71 -47.14,27.09 -76.2,33.86z"/>
   <path class="fil71" d="M228.59 1176.86l0 93.14c29.06,6.77 52.17,21.15 76.2,33.86 29.06,-6.77 52.17,-21.15 76.2,-33.86l0 -93.14c-24.03,-12.71 -47.14,-27.09 -76.2,-33.86 -24.03,12.71 -47.14,27.09 -76.2,33.86z"/>
   <path class="fil72" d="M990.59 414.86l0 93.14c29.06,6.77 52.17,21.15 76.2,33.86 29.06,-6.77 52.17,-21.15 76.2,-33.86l0 -93.14c-24.03,-12.71 -47.14,-27.09 -76.2,-33.86 -24.03,12.71 -47.14,27.09 -76.2,33.86z"/>
   <path class="fil73" d="M685.79 668.86l0 93.14c29.06,6.77 52.17,21.15 76.2,33.86 29.06,-6.77 52.17,-21.15 76.2,-33.86l0 -93.14c-24.03,-12.71 -47.14,-27.09 -76.2,-33.86 -24.03,12.71 -47.14,27.09 -76.2,33.86z"/>
   <path class="fil74" d="M838.19 668.86l0 93.14c29.06,6.77 52.17,21.15 76.2,33.86 29.06,-6.77 52.17,-21.15 76.2,-33.86l0 -93.14c-24.03,-12.71 -47.14,-27.09 -76.2,-33.86 -24.03,12.71 -47.14,27.09 -76.2,33.86z"/>
   <path class="fil75" d="M76.19 762c29.06,6.77 52.17,21.15 76.2,33.86 29.06,-6.77 52.17,-21.15 76.2,-33.86l0 -93.14c-24.03,-12.71 -47.14,-27.09 -76.2,-33.86 -24.03,12.71 -47.14,27.09 -76.2,33.86l0 93.14z"/>
   <path class="fil76" d="M1752.59 668.86l0 93.14c29.06,6.77 52.17,21.15 76.2,33.86 29.06,-6.77 52.17,-21.15 76.2,-33.86l0 -93.14c-24.03,-12.71 -47.14,-27.09 -76.2,-33.86 -24.03,12.71 -47.14,27.09 -76.2,33.86z"/>
   <path class="fil77" d="M1447.79 922.86l0 93.14c29.06,6.77 52.17,21.15 76.2,33.86 29.06,-6.77 52.17,-21.15 76.2,-33.86l0 -93.14c-24.03,-12.71 -47.14,-27.09 -76.2,-33.86 -24.03,12.71 -47.14,27.09 -76.2,33.86z"/>
   <path class="fil78" d="M1600.19 922.86l0 93.14c29.06,6.77 52.17,21.15 76.2,33.86 29.06,-6.77 52.17,-21.15 76.2,-33.86l0 -93.14c-24.03,-12.71 -47.14,-27.09 -76.2,-33.86 -24.03,12.71 -47.14,27.09 -76.2,33.86z"/>
   <path class="fil79" d="M1752.59 922.86l0 93.14c29.06,6.77 52.17,21.15 76.2,33.86 29.06,-6.77 52.17,-21.15 76.2,-33.86l0 -93.14c-24.03,-12.71 -47.14,-27.09 -76.2,-33.86 -24.03,12.71 -47.14,27.09 -76.2,33.86z"/>
   <path class="fil80" d="M533.39 922.86l0 93.14c29.06,6.77 52.17,21.15 76.2,33.86 29.06,-6.77 52.17,-21.15 76.2,-33.86l0 -93.14c-24.03,-12.71 -47.14,-27.09 -76.2,-33.86 -24.03,12.71 -47.14,27.09 -76.2,33.86z"/>
   <path class="fil81" d="M685.79 922.86l0 93.14c29.06,6.77 52.17,21.15 76.2,33.86 29.06,-6.77 52.17,-21.15 76.2,-33.86l0 -93.14c-24.03,-12.71 -47.14,-27.09 -76.2,-33.86 -24.03,12.71 -47.14,27.09 -76.2,33.86z"/>
   <path class="fil82" d="M838.19 414.86l0 93.14c29.06,6.77 52.17,21.15 76.2,33.86 29.06,-6.77 52.17,-21.15 76.2,-33.86l0 -93.14c-24.03,-12.71 -47.14,-27.09 -76.2,-33.86 -24.03,12.71 -47.14,27.09 -76.2,33.86z"/>
   <path class="fil83" d="M1143.15 668.9l0 93.06c29.5,6.84 51.79,20.97 76.2,33.86 28.98,-6.74 52.09,-21.18 76.21,-33.86l0 -93.18c-24.35,-12.97 -46.73,-27.14 -76.2,-33.82 -24.04,12.83 -47.25,27.23 -76.21,33.94z"/>
   <path class="fil84" d="M1447.79 668.86l0 93.14c29.06,6.77 52.17,21.15 76.2,33.86 29.06,-6.77 52.17,-21.15 76.2,-33.86l0 -93.1c-23.94,-12.74 -47.14,-27.12 -76.04,-33.91 -24.22,12.68 -47.2,27.08 -76.36,33.87z"/>
   <path class="fil85" d="M304.79 541.86l0 93.14c28.97,6.75 52.19,21.11 76.03,33.85 29.72,-6.9 51.9,-20.97 76.37,-33.87l0 -93.12c-24.03,-12.71 -47.14,-27.09 -76.2,-33.86 -24.03,12.71 -47.14,27.09 -76.2,33.86z"/>
   <path class="fil86" d="M761.99 287.78l0 93.19c29.08,6.82 52.16,21.17 76.2,33.89 29.06,-6.77 52.17,-21.15 76.2,-33.86l0 -93.14c-24.03,-12.71 -47.14,-27.09 -76.2,-33.86 -24.35,12.88 -46.66,27.04 -76.2,33.78z"/>
   <path class="fil87" d="M990.59 160.82l0 93.18c29.06,6.77 52.17,21.15 76.2,33.86 29.06,-6.77 52.17,-21.15 76.2,-33.86l0 -93.14c-23.96,-12.67 -47.13,-27.06 -76.03,-33.87 -24.55,12.83 -46.73,26.99 -76.37,33.83z"/>
   <path class="fil88" d="M152.39 1049.86l0 93.14c29.06,6.77 52.17,21.15 76.2,33.86 29.06,-6.77 52.17,-21.15 76.2,-33.86l0 -93.1c-24.13,-12.67 -47.13,-27.04 -76.28,-33.87 -23.95,12.69 -47.09,27.07 -76.12,33.83z"/>
   <path class="fil89" d="M609.59 1303.86l0 93.14c29.06,6.77 52.17,21.15 76.2,33.86 29.06,-6.77 52.17,-21.15 76.2,-33.86l0 -93.06c-24.13,-12.7 -47.13,-27.05 -76.28,-33.9 -23.96,12.68 -47.09,27.06 -76.12,33.82z"/>
   <path class="fil90" d="M1600.19 414.86l0 93.07c29.66,6.92 51.85,21 76.37,33.91 28.89,-6.76 52.08,-21.17 76.03,-33.84l0 -93.14c-24.03,-12.71 -47.14,-27.09 -76.2,-33.86 -24.03,12.71 -47.14,27.09 -76.2,33.86z"/>
   <path class="fil91" d="M533.39 1176.86l0 93.14c29.06,6.77 52.17,21.15 76.2,33.86 29.03,-6.76 52.16,-21.14 76.12,-33.82l0 -93.17c-23.94,-12.74 -47.1,-27.11 -76.12,-33.87 -24.03,12.71 -47.14,27.09 -76.2,33.86z"/>
   <path class="fil92" d="M76.19 922.86l0 93.14c29.06,6.77 52.17,21.15 76.2,33.86 29.03,-6.76 52.17,-21.14 76.12,-33.83l0 -93.17c-23.94,-12.74 -47.1,-27.1 -76.12,-33.86 -24.03,12.71 -47.14,27.09 -76.2,33.86z"/>
   <path class="fil93" d="M1600.3 1176.91l0 93.14c28.51,6.81 52.33,21.42 76.09,33.93 29.11,-6.97 52.14,-21.25 76.2,-33.98l0 -93.13c-24.02,-12.71 -47.15,-27.13 -76.2,-33.83 -24.26,12.96 -46.63,27.05 -76.09,33.87z"/>
   <path class="fil94" d="M761.99 1303.94l0 93.06c29.06,6.77 52.17,21.15 76.2,33.86 29.06,-6.77 52.17,-21.15 76.2,-33.86l0 -93.14c-24.02,-12.71 -47.15,-27.12 -76.2,-33.83 -24.33,12.97 -46.63,27.02 -76.2,33.91z"/>
   <path class="fil95" d="M1447.79 414.86l0 93.14c29.66,6.91 51.8,21.04 76.36,33.82 28.92,-6.89 52.01,-21.26 76.04,-33.89l0 -93.07c-24.03,-12.71 -47.14,-27.09 -76.2,-33.86 -24.03,12.71 -47.14,27.09 -76.2,33.86z"/>
   <path class="fil96" d="M1600.19 668.9l0 93.1c29.06,6.77 52.17,21.15 76.2,33.86 29.06,-6.77 52.17,-21.15 76.2,-33.86l0 -93.14c-23.94,-12.67 -47.14,-27.09 -76.03,-33.82 -24.49,12.93 -46.72,27.05 -76.37,33.86z"/>
   <path class="fil97" d="M533.39 160.86l0 93.14c28.99,6.75 52.17,21.13 76.03,33.81 29.22,-6.87 52.2,-21.19 76.37,-33.95l0 -93c-24.03,-12.71 -47.14,-27.09 -76.2,-33.86 -24.03,12.71 -47.14,27.09 -76.2,33.86z"/>
   <path class="fil98" d="M1523.99 1303.86l0 93.14c29.06,6.77 52.17,21.15 76.2,33.86 29.06,-6.77 52.17,-21.15 76.2,-33.86l0 -93.02c-23.76,-12.51 -47.58,-27.12 -76.09,-33.93 -24.5,12.77 -46.68,26.91 -76.31,33.81z"/>
   <path class="fil99" d="M685.79 160.86l0 93c29.57,6.8 51.95,20.84 76.2,33.92 29.54,-6.74 51.85,-20.9 76.2,-33.78l0 -93.14c-24.03,-12.71 -47.14,-27.09 -76.2,-33.86 -24.03,12.71 -47.14,27.09 -76.2,33.86z"/>
   <path class="fil100" d="M1371.76 795.82l0 93.22c28.89,6.73 52.09,21.15 76.03,33.82 29.06,-6.77 52.17,-21.15 76.2,-33.86l0 -93.14c-24.03,-12.71 -47.14,-27.09 -76.2,-33.86 -23.94,12.67 -47.14,27.09 -76.03,33.82z"/>
   <path class="fil101" d="M1676.56 541.84l0 93.2c28.89,6.73 52.09,21.15 76.03,33.82 29.06,-6.77 52.17,-21.15 76.2,-33.86l0 -93.14c-24.03,-12.71 -47.14,-27.09 -76.2,-33.86 -23.95,12.67 -47.14,27.08 -76.03,33.84z"/>
   <path class="fil102" d="M457.19 287.86l0 93.14c29.06,6.77 52.17,21.15 76.2,33.86 28.97,-6.75 52.2,-21.1 76.03,-33.87l0 -93.18c-23.86,-12.68 -47.04,-27.06 -76.03,-33.81 -24.03,12.71 -47.14,27.09 -76.2,33.86z"/>
   <path class="fil103" d="M228.59 668.86l0 93.14c29.06,6.77 52.17,21.15 76.2,33.86 28.98,-6.75 52.18,-21.11 76.03,-33.84l0 -93.17c-23.84,-12.74 -47.06,-27.1 -76.03,-33.85 -24.03,12.71 -47.14,27.09 -76.2,33.86z"/>
   <path class="fil104" d="M838.19 1176.95l0 93.08c29.05,6.71 52.18,21.12 76.2,33.83 29.06,-6.77 52.17,-21.15 76.2,-33.86l0 -93.01c-23.87,-12.46 -47.56,-27.05 -76.2,-33.91 -24.09,12.61 -47.07,26.95 -76.2,33.87z"/>
   <path class="fil105" d="M1295.39 414.86l0 92.97c29.67,6.86 51.93,20.91 76.37,33.95 28.87,-6.65 52.1,-21.12 76.03,-33.78l0 -93.14c-24.03,-12.71 -47.14,-27.09 -76.2,-33.86 -24.03,12.71 -47.14,27.09 -76.2,33.86z"/>
   <path class="fil106" d="M1142.99 414.86l0 93.14c29.67,6.91 51.79,21.07 76.37,33.78 28.45,-6.87 52.26,-21.47 76.03,-33.95l0 -92.97c-24.03,-12.71 -47.14,-27.09 -76.2,-33.86 -24.03,12.71 -47.14,27.09 -76.2,33.86z"/>
   <path class="fil107" d="M1219.36 1049.99l0 93.09c28.87,6.65 52.1,21.12 76.03,33.78 29.06,-6.77 52.17,-21.15 76.2,-33.86l0 -93.14c-23.94,-12.67 -47.14,-27.1 -76.03,-33.82 -24.1,12.72 -47.19,27.08 -76.2,33.95z"/>
   <path class="fil108" d="M1295.56 668.78l0 93.18c29.49,6.84 51.78,20.97 76.2,33.86 28.89,-6.73 52.09,-21.15 76.03,-33.82l0 -93.14c-23.96,-12.68 -47.13,-27.06 -76.03,-33.87 -24.13,12.62 -47.24,27.11 -76.2,33.79z"/>
   <path class="fil109" d="M1295.56 922.9l0 93.14c28.89,6.72 52.09,21.15 76.03,33.82 29.06,-6.77 52.17,-21.15 76.2,-33.86l0 -93.14c-23.94,-12.67 -47.14,-27.09 -76.03,-33.82 -24.42,12.89 -46.71,27.02 -76.2,33.86z"/>
   <path class="fil110" d="M990.59 1176.99l0 93.01c29.06,6.77 52.17,21.15 76.2,33.86 29.06,-6.77 52.17,-21.15 76.2,-33.86l0 -92.97c-23.76,-12.47 -47.6,-27.11 -76.04,-33.91 -24.52,12.81 -46.67,26.9 -76.36,33.87z"/>
   <path class="fil111" d="M1371.59 1555.8l0 95.2c97.7,22.76 38.35,60.34 152.4,0l0 -93.14c-24.03,-12.71 -47.14,-27.09 -76.2,-33.86 -24.32,12.87 -46.8,28.38 -76.2,31.8z"/>
   <path class="fil112" d="M761.99 33.86l0 93.14c29.06,6.77 52.17,21.15 76.2,33.86 29.08,-6.77 52.18,-21.15 76.26,-33.91l0 -93.09c-114.38,-60.28 -54.49,-22.82 -152.46,0z"/>
   <path class="fil113" d="M609.59 1557.86l0 93.14c97.7,22.76 38.35,60.34 152.4,0l0 -93.14c-24.03,-12.71 -47.14,-27.09 -76.2,-33.86 -24.03,12.71 -47.14,27.09 -76.2,33.86z"/>
   <path class="fil114" d="M761.99 1557.86l0 93.14c97.7,22.76 38.35,60.34 152.4,0l0 -93.14c-24.03,-12.71 -47.14,-27.09 -76.2,-33.86 -24.03,12.71 -47.14,27.09 -76.2,33.86z"/>
   <path class="fil115" d="M914.39 1557.86l0 93.14c97.7,22.76 38.35,60.34 152.4,0l0 -93.14c-24.03,-12.71 -47.14,-27.09 -76.2,-33.86 -24.03,12.71 -47.14,27.09 -76.2,33.86z"/>
   <path class="fil116" d="M457.19 1557.86l0 93.14c97.7,22.76 38.35,60.34 152.4,0l0 -93.14c-24.03,-12.71 -47.14,-27.09 -76.2,-33.86 -24.03,12.71 -47.14,27.09 -76.2,33.86z"/>
   <path class="fil117" d="M457.19 127c29.06,6.77 52.17,21.15 76.2,33.86 29.06,-6.77 52.17,-21.15 76.2,-33.86l0 -93.14c-114.05,-60.34 -54.7,-22.76 -152.4,0l0 93.14z"/>
   <path class="fil118" d="M609.59 33.86l0 93.14c29.06,6.77 52.17,21.15 76.2,33.86 29.06,-6.77 52.17,-21.15 76.2,-33.86l0 -93.14c-114.05,-60.34 -54.7,-22.76 -152.4,0z"/>
   <path class="fil119" d="M1219.19 33.86l0 93.14c29.06,6.77 52.17,21.15 76.2,33.86 29.06,-6.77 52.17,-21.15 76.2,-33.86l0 -93.14c-114.05,-60.34 -54.7,-22.76 -152.4,0z"/>
   <path class="fil120" d="M1371.59 33.86l0 93.14c29.06,6.77 52.17,21.15 76.2,33.86 29.06,-6.77 52.17,-21.15 76.2,-33.86l0 -93.14c-114.05,-60.34 -54.7,-22.76 -152.4,0z"/>
   <path class="fil121" d="M914.45 33.86l0 93.09c29.51,6.81 51.86,20.9 76.14,33.87 29.64,-6.84 51.82,-21 76.37,-33.83l0 -93.13c-114.98,-60.13 -54.04,-23.01 -152.51,0z"/>
   <path class="fil122" d="M1066.96 33.86l0 93.13c28.9,6.81 52.07,21.2 76.03,33.87 29.06,-6.77 52.17,-21.15 76.2,-33.86l0 -93.14c-113.85,-60.24 -54.66,-22.95 -152.23,0z"/>
   <path class="fil123" d="M1142.99 1430.86l0 93.14c98.07,22.85 39.12,58.68 152.4,-3.1l0 -91.75c-22.91,-13.51 -45.77,-27.7 -74.38,-33.06 -25.67,13.5 -48.28,27.85 -78.02,34.77z"/>
   <path class="fil124" d="M1295.39 1429.15l0 91.75c30.36,4.56 54.73,16.68 76.2,34.9 29.4,-3.42 51.88,-18.93 76.2,-31.8l0 -93.14c-24.87,-13.15 -46.99,-26.77 -77.65,-34.67l-74.75 32.96z"/>
  </g>
 </g>
</svg>
