<?xml version="1.0" encoding="UTF-8"?>
<!DOCTYPE svg PUBLIC "-//W3C//DTD SVG 1.1//EN" "http://www.w3.org/Graphics/SVG/1.1/DTD/svg11.dtd">
<!-- Creator: CorelDRAW 2017 -->
<svg xmlns="http://www.w3.org/2000/svg" xml:space="preserve" width="19.8118mm" height="4.1486mm" version="1.1" style="shape-rendering:geometricPrecision; text-rendering:geometricPrecision; image-rendering:optimizeQuality; fill-rule:evenodd; clip-rule:evenodd"
viewBox="0 0 1981.18 414.86"
 xmlns:xlink="http://www.w3.org/1999/xlink">
 <defs>
  <style type="text/css">
   <![CDATA[
    .fil0 {fill:none}
    .fil2 {fill:#FEFEFE}
    .fil1 {fill:black}
    .fil5 {fill:#3C78D8}
    .fil6 {fill:#6AA84F}
    .fil9 {fill:#9900FF}
    .fil3 {fill:#CC0000}
    .fil4 {fill:#EA9999}
    .fil8 {fill:#F1C232}
    .fil7 {fill:#FF9900}
   ]]>
  </style>
 </defs>
 <g id="Capa_x0020_1">
  <metadata id="CorelCorpID_0Corel-Layer"/>
  <rect class="fil0" x="-0" width="1981.19" height="414.86"/>
  <rect class="fil1" x="457.19" y="-0" width="152.23" height="194.66"/>
  <rect class="fil2" x="609.43" y="-0" width="152.57" height="194.66"/>
  <rect class="fil3" x="914.57" y="-0" width="152.23" height="194.66"/>
  <rect class="fil4" x="761.98" y="-0" width="152.57" height="194.66"/>
  <rect class="fil5" x="1524.15" y="-0" width="152.23" height="194.66"/>
  <rect class="fil6" x="1371.57" y="-0" width="152.57" height="194.66"/>
  <rect class="fil7" x="1066.79" y="-0" width="152.23" height="194.66"/>
  <rect class="fil8" x="1219.02" y="-0" width="152.57" height="194.66"/>
  <rect class="fil9" x="1676.36" y="-0" width="152.41" height="194.66"/>
  <rect class="fil1" x="457.19" y="218.95" width="152.23" height="195.3"/>
  <rect class="fil2" x="609.43" y="218.95" width="152.57" height="195.3"/>
  <rect class="fil3" x="914.57" y="218.95" width="152.23" height="195.3"/>
  <rect class="fil4" x="761.98" y="218.95" width="152.57" height="195.3"/>
  <rect class="fil5" x="1524.15" y="218.95" width="152.23" height="195.3"/>
  <rect class="fil6" x="1371.57" y="218.95" width="152.57" height="195.3"/>
  <rect class="fil7" x="1066.79" y="218.95" width="152.23" height="195.3"/>
  <rect class="fil8" x="1219.02" y="218.95" width="152.57" height="195.3"/>
  <rect class="fil9" x="1676.36" y="218.95" width="152.41" height="195.3"/>
 </g>
</svg>
