<?xml version="1.0" encoding="UTF-8"?>
<!DOCTYPE svg PUBLIC "-//W3C//DTD SVG 1.1//EN" "http://www.w3.org/Graphics/SVG/1.1/DTD/svg11.dtd">
<!-- Creator: CorelDRAW 2017 -->
<svg xmlns="http://www.w3.org/2000/svg" xml:space="preserve" width="19.8118mm" height="4.1486mm" version="1.1" style="shape-rendering:geometricPrecision; text-rendering:geometricPrecision; image-rendering:optimizeQuality; fill-rule:evenodd; clip-rule:evenodd"
viewBox="0 0 1981.18 414.86"
 xmlns:xlink="http://www.w3.org/1999/xlink">
 <defs>
  <style type="text/css">
   <![CDATA[
    .fil0 {fill:none}
    .fil14 {fill:#FEFEFE}
    .fil1 {fill:#D2D3D5}
    .fil10 {fill:black}
    .fil8 {fill:black}
    .fil4 {fill:#3C78D8}
    .fil3 {fill:#6AA84F}
    .fil13 {fill:#9900FF}
    .fil11 {fill:#CC0000}
    .fil6 {fill:#CC0000}
    .fil9 {fill:#EA9999}
    .fil7 {fill:#EA9999}
    .fil5 {fill:#F1C232}
    .fil12 {fill:#FF9900}
    .fil2 {fill:#FF9900}
   ]]>
  </style>
 </defs>
 <g id="Capa_x0020_1">
  <metadata id="CorelCorpID_0Corel-Layer"/>
  <rect class="fil0" x="-0" width="1981.19" height="414.86"/>
  <path class="fil1" d="M609.42 287.2l0 93.18c29.73,6.86 51.93,20.95 76.37,33.84 29.07,-6.83 52.12,-21.2 76.2,-33.86l0 -93.19c-24.25,-13.08 -46.63,-27.12 -76.2,-33.92 -24.17,12.76 -47.15,27.08 -76.37,33.95z"/>
  <path class="fil2" d="M1066.79 287.25l0 93.14c29.06,6.77 52.17,21.15 76.2,33.86 29.06,-6.77 52.17,-21.15 76.2,-33.86l0 -93.14c-24.03,-12.71 -47.14,-27.09 -76.2,-33.86 -24.03,12.71 -47.14,27.09 -76.2,33.86z"/>
  <path class="fil3" d="M1371.59 287.25l0 93.14c29.06,6.77 52.17,21.15 76.2,33.86 29.06,-6.77 52.17,-21.15 76.2,-33.86l0 -93.14c-24.03,-12.71 -47.14,-27.09 -76.2,-33.86 -24.03,12.71 -47.14,27.09 -76.2,33.86z"/>
  <path class="fil4" d="M1523.99 287.25l0 93.14c29.06,6.77 52.17,21.15 76.2,33.86 29.06,-6.77 52.17,-21.15 76.2,-33.86l0 -93.14c-24.03,-12.71 -47.14,-27.09 -76.2,-33.86 -24.03,12.71 -47.14,27.09 -76.2,33.86z"/>
  <path class="fil5" d="M1219.19 287.25l0 93.14c29.06,6.77 52.17,21.15 76.2,33.86 29.06,-6.77 52.17,-21.15 76.2,-33.86l0 -93.14c-24.03,-12.71 -47.14,-27.09 -76.2,-33.86 -24.03,12.71 -47.14,27.09 -76.2,33.86z"/>
  <path class="fil6" d="M914.39 287.25l0 93.14c29.06,6.77 52.17,21.15 76.2,33.86 29.06,-6.77 52.17,-21.15 76.2,-33.86l0 -93.14c-24.03,-12.71 -47.14,-27.09 -76.2,-33.86 -24.03,12.71 -47.14,27.09 -76.2,33.86z"/>
  <path class="fil7" d="M761.99 287.17l0 93.19c29.08,6.82 52.16,21.17 76.2,33.89 29.06,-6.77 52.17,-21.15 76.2,-33.86l0 -93.14c-24.03,-12.71 -47.14,-27.09 -76.2,-33.86 -24.35,12.88 -46.66,27.04 -76.2,33.78z"/>
  <path class="fil8" d="M457.19 287.25l0 93.14c29.06,6.77 52.17,21.15 76.2,33.86 28.97,-6.75 52.2,-21.1 76.03,-33.87l0 -93.18c-23.86,-12.68 -47.04,-27.06 -76.03,-33.81 -24.03,12.71 -47.14,27.09 -76.2,33.86z"/>
  <path class="fil9" d="M761.99 33.25l0 93.14c29.06,6.77 52.17,21.15 76.2,33.86 29.08,-6.77 52.18,-21.15 76.26,-33.91l0 -93.09c-114.38,-60.28 -54.49,-22.82 -152.46,0z"/>
  <path class="fil10" d="M457.19 126.39c29.06,6.77 52.17,21.15 76.2,33.86 29.06,-6.77 52.17,-21.15 76.2,-33.86l0 -93.14c-114.05,-60.34 -54.7,-22.76 -152.4,0l0 93.14z"/>
  <path class="fil1" d="M609.59 33.25l0 93.14c29.06,6.77 52.17,21.15 76.2,33.86 29.06,-6.77 52.17,-21.15 76.2,-33.86l0 -93.14c-114.05,-60.34 -54.7,-22.76 -152.4,0z"/>
  <path class="fil5" d="M1219.19 33.25l0 93.14c29.06,6.77 52.17,21.15 76.2,33.86 29.06,-6.77 52.17,-21.15 76.2,-33.86l0 -93.14c-114.05,-60.34 -54.7,-22.76 -152.4,0z"/>
  <path class="fil3" d="M1371.59 33.25l0 93.14c29.06,6.77 52.17,21.15 76.2,33.86 29.06,-6.77 52.17,-21.15 76.2,-33.86l0 -93.14c-114.05,-60.34 -54.7,-22.76 -152.4,0z"/>
  <path class="fil11" d="M914.45 33.25l0 93.09c29.51,6.81 51.86,20.9 76.14,33.87 29.64,-6.84 51.82,-21 76.37,-33.83l0 -93.13c-114.98,-60.13 -54.04,-23.01 -152.51,0z"/>
  <path class="fil12" d="M1066.96 33.25l0 93.13c28.9,6.81 52.07,21.2 76.03,33.87 29.06,-6.77 52.17,-21.15 76.2,-33.86l0 -93.14c-113.85,-60.24 -54.66,-22.95 -152.23,0z"/>
  <path class="fil4" d="M1523.92 33.21l0 93.14c29.06,6.77 52.17,21.15 76.2,33.86 29.06,-6.77 52.17,-21.15 76.2,-33.86l0 -93.14c-114.05,-60.34 -54.7,-22.76 -152.4,0z"/>
  <path class="fil13" d="M1676.32 33.21l0 93.14c29.06,6.77 52.17,21.15 76.2,33.86 29.06,-6.77 52.17,-21.15 76.2,-33.86l0 -93.14c-114.05,-60.34 -54.7,-22.76 -152.4,0z"/>
  <path class="fil13" d="M1676.37 287.38l0 93.14c29.06,6.77 52.17,21.15 76.2,33.86 29.06,-6.77 52.17,-21.15 76.2,-33.86l0 -93.14c-24.03,-12.71 -47.14,-27.09 -76.2,-33.86 -24.03,12.71 -47.14,27.09 -76.2,33.86z"/>
  <path class="fil14" d="M610.4 34.71l0 90.23c29.06,6.56 52.17,20.49 76.2,32.8 29.06,-6.56 52.17,-20.49 76.2,-32.8l0 -90.23c-114.05,-58.45 -54.7,-22.05 -152.4,0z"/>
  <path class="fil14" d="M609.42 289.77l0 88.07c29.73,6.48 51.93,19.8 76.37,31.98 29.07,-6.46 52.12,-20.04 76.2,-32l0 -88.08c-24.25,-12.36 -46.63,-25.63 -76.2,-32.06 -24.17,12.06 -47.15,25.59 -76.37,32.09z"/>
 </g>
</svg>
